<svg height="40" viewBox="0 0 40 40" width="40" xmlns="http://www.w3.org/2000/svg" xmlns:xlink="http://www.w3.org/1999/xlink"><linearGradient id="a" x1="14.645309%" x2="85.354691%" y1="14.645309%" y2="85.363492%"><stop offset=".2" stop-color="#30b396"/><stop offset="1" stop-color="#1e5e71"/></linearGradient><g fill="none" fill-rule="nonzero"><circle cx="19.99375" cy="19.98125" fill="url(#a)" r="17.753125"/><path d="m18.784375 13.9875-7.35625 21.546875c-.8125-.446875-1.58125-.959375-2.309375-1.525l1.134375-3.26875-2.528125-.86875.859375-2.56875 2.528125.86875 1.728125-5.05625-2.528125-.86875.86875-2.5375 2.528125.86875 1.728125-5.05625-2.528125-.86875.86875-2.5375 2.528125.86875 1.6875-4.99375-2.496875-.909375.440625-1.26875 5.05625 1.728125-.378125 1.1-1.76875 5.184375-.059375.159375zm-12.996875 16.640625c.6625.884375 1.40625 1.703125 2.21875 2.446875l.51875-1.515625zm3.29375-13.01875 3.8 1.296875.865625-2.534375-3.8-1.296875zm-2.590625 7.590625 3.8 1.296875.865625-2.534375-3.8-1.296875zm31.259375-5.21875c0-2.534375-.534375-4.940625-1.490625-7.11875l-13.325-4.559375-9.603125 28.134375c2.059375.834375 4.30625 1.3 6.665625 1.3 9.80625 0 17.753125-7.946875 17.753125-17.753125zm-26.071875-9.971875 3.8 1.296875.865625-2.534375-3.8-1.296875z" fill="#fff"/><path d="m19.99375 2.23125c9.80625 0 17.753125 7.946875 17.753125 17.753125s-7.946875 17.753125-17.753125 17.753125-17.753125-7.946875-17.753125-17.753125c0-9.80625 7.946875-17.753125 17.753125-17.753125m0-2.228125c-11.034375 0-19.98125 8.946875-19.98125 19.98125s8.946875 19.98125 19.98125 19.98125 19.98125-8.946875 19.98125-19.98125-8.946875-19.98125-19.98125-19.98125z" fill="#1e5e71"/></g></svg>