<?xml version="1.0" standalone="no"?>
<!DOCTYPE svg PUBLIC "-//W3C//DTD SVG 20010904//EN"
 "http://www.w3.org/TR/2001/REC-SVG-20010904/DTD/svg10.dtd">
<svg version="1.0" xmlns="http://www.w3.org/2000/svg"
 width="324.000000pt" height="324.000000pt" viewBox="0 0 324.000000 324.000000"
 preserveAspectRatio="xMidYMid meet">
<metadata>
Created by potrace 1.14, written by Peter Selinger 2001-2017
</metadata>
<g transform="translate(0.000000,324.000000) scale(0.100000,-0.100000)"
fill="#000000" stroke="none">
<path d="M1080 2700 l0 -60 -60 0 -60 0 0 -60 0 -60 -60 0 -60 0 0 -60 0 -60
-60 0 -60 0 0 -60 0 -60 -60 0 -60 0 0 -240 0 -240 -60 0 -60 0 0 -480 0 -480
60 0 60 0 0 -120 0 -120 60 0 60 0 0 120 0 120 60 0 60 0 0 -60 0 -60 60 0 60
0 0 -60 0 -60 60 0 60 0 0 -60 0 -60 -120 0 -120 0 0 -60 0 -60 -60 0 -60 0 0
-60 0 -60 -60 0 -60 0 0 -120 0 -120 1080 0 1080 0 0 60 0 60 -60 0 -60 0 0
60 0 60 -60 0 -60 0 0 60 0 60 -60 0 -60 0 0 60 0 60 60 0 60 0 0 120 0 120
60 0 60 0 0 -60 0 -60 60 0 60 0 0 600 0 600 -60 0 -60 0 0 180 0 180 -60 0
-60 0 0 120 0 120 -60 0 -60 0 0 60 0 60 -60 0 -60 0 0 60 0 60 -60 0 -60 0 0
60 0 60 -540 0 -540 0 0 -60z m-120 -540 l0 -120 -60 0 -60 0 0 120 0 120 60
0 60 0 0 -120z m1440 0 l0 -120 -60 0 -60 0 0 120 0 120 60 0 60 0 0 -120z
m-960 -60 l0 -60 60 0 60 0 0 -60 0 -60 60 0 60 0 0 -60 0 -60 60 0 60 0 0
-60 0 -60 180 0 180 0 0 -120 0 -120 -60 0 -60 0 0 60 0 60 -60 0 -60 0 0 -60
0 -60 -60 0 -60 0 0 -60 0 -60 120 0 120 0 0 -60 0 -60 -60 0 -60 0 0 -60 0
-60 -60 0 -60 0 0 -60 0 -60 60 0 60 0 0 -60 0 -60 -300 0 -300 0 0 60 0 60
180 0 180 0 0 120 0 120 -120 0 -120 0 0 -60 0 -60 -60 0 -60 0 0 60 0 60 -60
0 -60 0 0 60 0 60 120 0 120 0 0 60 0 60 -60 0 -60 0 0 60 0 60 -60 0 -60 0 0
-60 0 -60 -60 0 -60 0 0 120 0 120 180 0 180 0 0 60 0 60 -120 0 -120 0 0 60
0 60 60 0 60 0 0 120 0 120 60 0 60 0 0 -60z m960 -1500 l0 -120 -120 0 -120
0 0 60 0 60 60 0 60 0 0 60 0 60 60 0 60 0 0 -120z"/>
<path d="M1440 1560 l0 -120 180 0 180 0 0 120 0 120 -60 0 -60 0 0 -60 0 -60
-60 0 -60 0 0 60 0 60 -60 0 -60 0 0 -120z"/>
</g>
</svg>
